<svg id="Capa_1" enable-background="new 0 0 512 512" height="512" viewBox="0 0 512 512" width="512" xmlns="http://www.w3.org/2000/svg"><g><g><path clip-rule="evenodd" d="m167.66 233.105 31.351 145.758h113.979l31.322-145.758 3.487-16.217c1.531-7.06-5.896-13.127-13.096-13.127h-157.406c-7.228 0-14.626 6.067-13.124 13.127z" fill="#ffa96b" fill-rule="evenodd"/></g><g><path clip-rule="evenodd" d="m124.716 378.863h74.295l-31.351-145.758-34.61 10.632-37.105 11.369c-20.409 6.266-26.844 23.192-18.396 40.884.482 1.049 1.02 2.07 1.616 3.119z" fill="#ffd4b5" fill-rule="evenodd"/></g><g><path clip-rule="evenodd" d="m29.218 378.863h95.497l-45.552-79.754c-.595-1.049-1.134-2.07-1.616-3.119l-23.981 18.542c-17.688 13.694-36.198 26.056-31.747 48 1.248 6.125 3.856 11.653 7.399 16.331z" fill="#ffa96b" fill-rule="evenodd"/></g><g><path clip-rule="evenodd" d="m344.311 233.105-31.322 145.758h74.295l45.552-79.754c.595-1.049 1.134-2.07 1.616-3.119 8.419-17.692 2.013-34.618-18.425-40.884l-37.076-11.369z" fill="#ffd4b5" fill-rule="evenodd"/></g><g><path clip-rule="evenodd" d="m387.284 378.863h95.497c3.543-4.678 6.123-10.207 7.37-16.331 4.479-21.945-14.031-34.306-31.747-48l-23.952-18.542c-.482 1.049-1.02 2.07-1.616 3.119z" fill="#ffa96b" fill-rule="evenodd"/></g><g><path clip-rule="evenodd" d="m106.036 424.68h299.9 69.646c14.031 0 20.948-30.28 26.418-45.817h-19.219-95.497-74.295-113.979-74.295-95.497-19.218c5.442 15.537 12.359 45.817 26.39 45.817z" fill="#faf7f5" fill-rule="evenodd"/></g><g><path clip-rule="evenodd" d="m134.07 466.5h243.86c19.672 0 20.381-24.581 28.006-41.819h-299.9c7.653 17.237 8.333 41.819 28.034 41.819z" fill="#ebddd9" fill-rule="evenodd"/></g><g><path d="m132.243 323.37c1.845 3.235 5.221 5.048 8.696 5.048 1.679 0 3.381-.424 4.943-1.315 4.798-2.736 6.47-8.843 3.733-13.641l-15.052-26.396c-2.736-4.799-8.845-6.468-13.64-3.733-4.798 2.736-6.47 8.843-3.733 13.641z"/><path d="m366.117 327.104c1.563.891 3.265 1.315 4.943 1.315 3.476 0 6.853-1.814 8.696-5.048l15.052-26.396c2.736-4.798 1.064-10.905-3.733-13.641-4.796-2.735-10.905-1.064-13.64 3.733l-15.052 26.396c-2.736 4.798-1.064 10.905 3.734 13.641z"/><path d="m331.787 122.674c-.161 8.806 2.67 17.068 8.018 23.33 1.978 2.373 4.822 3.598 7.687 3.597 2.258 0 4.528-.76 6.397-2.318 4.243-3.536 4.815-9.842 1.279-14.084l-.19-.224c-2.155-2.523-3.288-6.094-3.191-10.054.004-.163.004-.326 0-.489-.098-3.979 1.036-7.56 3.192-10.084l.189-.224c.042-.051.101-.12.142-.172 6.692-7.998 7.99-16.961 7.876-23.157.112-6.141-1.171-15.047-7.792-23.08l-.063-.076c-3.395-4.297-9.626-5.066-13.968-1.705-4.366 3.382-5.165 9.663-1.783 14.029.09.116.217.274.38.472 2.239 2.717 3.324 6.12 3.227 10.115-.004.164-.004.327 0 .491.068 2.763-.435 6.754-3.215 10.077-.077.092-.144.172-.201.242-5.314 6.218-8.145 14.49-7.984 23.314z"/><path d="m248.476 72.77-.318.384c-6.688 8-7.985 16.959-7.872 23.152-.111 6.138 1.172 15.04 7.787 23.074l.062.075c1.971 2.499 4.897 3.806 7.857 3.806 2.136 0 4.288-.682 6.108-2.088 4.37-3.377 5.175-9.658 1.797-14.027-.091-.117-.22-.278-.385-.479-2.239-2.719-3.325-6.123-3.228-10.117.004-.163.004-.326 0-.489-.067-2.762.436-6.753 3.216-10.079.125-.148.224-.269.295-.355 6.704-7.987 8.004-16.979 7.89-23.201.161-8.805-2.67-17.066-8.033-23.346-3.538-4.228-9.835-4.792-14.069-1.262-4.243 3.536-4.815 9.842-1.279 14.084l.19.225c2.155 2.524 3.289 6.094 3.192 10.054-.004.163-.004.326 0 .489.069 2.782-.433 6.793-3.21 10.1z"/><path d="m148.814 122.674c-.161 8.805 2.669 17.067 8.018 23.329 1.978 2.373 4.822 3.598 7.687 3.597 2.258 0 4.528-.76 6.397-2.318 4.243-3.536 4.815-9.842 1.279-14.084l-.19-.225c-2.155-2.523-3.289-6.094-3.191-10.053.004-.164.004-.327 0-.491-.098-3.978 1.036-7.559 3.191-10.083l.19-.224c.042-.051.101-.12.143-.172 6.691-7.998 7.988-16.962 7.875-23.158.112-6.141-1.172-15.046-7.792-23.079l-.062-.075c-3.396-4.298-9.627-5.069-13.969-1.706-4.366 3.382-5.165 9.663-1.783 14.029.09.115.217.273.38.471 2.238 2.717 3.324 6.12 3.227 10.116-.004.163-.004.326 0 .489.067 2.764-.436 6.755-3.216 10.078-.076.091-.143.172-.2.242-5.315 6.222-8.145 14.494-7.984 23.317z"/><path d="m510.161 373.085c-1.875-2.647-4.917-4.221-8.161-4.221h-3.149c.421-1.422.799-2.861 1.099-4.332 5.432-26.616-14.412-41.81-31.92-55.216-1.169-.895-2.341-1.792-3.504-2.691l-18.115-14.023c2.428-8.496 2.193-16.894-.796-24.425-4.221-10.633-13.691-18.671-26.656-22.631l-62.941-19.31 1.553-7.229c1.244-5.734-.196-11.527-4.055-16.312-4.444-5.511-11.652-8.935-18.813-8.935h-157.405c-7.152 0-14.356 3.411-18.802 8.902-3.867 4.778-5.324 10.569-4.099 16.327l1.559 7.249-25.836 7.937-37.101 11.368c-12.96 3.963-22.419 12-26.637 22.629-2.987 7.531-3.222 15.928-.795 24.424l-18.143 14.028c-1.179.913-2.361 1.82-3.541 2.724-17.473 13.397-37.276 28.583-31.883 55.179.299 1.471.679 2.912 1.102 4.336h-3.122c-3.241 0-6.281 1.571-8.156 4.215-1.875 2.644-2.353 6.032-1.281 9.091.825 2.357 1.72 5.179 2.668 8.166 6.266 19.757 14.064 44.346 33.159 44.346h62.78c.778 2.291 1.519 4.694 2.278 7.176 4.475 14.62 10.604 34.643 32.622 34.643h243.859c22.015 0 28.145-20.05 32.62-34.689.754-2.466 1.489-4.853 2.26-7.13h62.772c19.065 0 26.872-24.533 33.145-44.246.961-3.02 1.868-5.872 2.706-8.25 1.077-3.06.604-6.453-1.271-9.1zm-72.618-62.055 14.744 11.414c1.193.922 2.39 1.838 3.582 2.751 16.995 13.013 27.271 21.682 24.482 35.342-.601 2.948-1.613 5.731-3.007 8.326h-72.834zm-85.744-65.168 61.306 18.808c4.983 1.522 11.443 4.646 13.92 10.885 2.047 5.157 1.026 11.761-2.873 18.594l-42.673 74.714h-56.113zm-174.501-32.101h157.404c1.345 0 2.737.853 3.227 1.454l-33.019 153.648h-97.822l-33.043-153.635c.483-.604 1.888-1.467 3.253-1.467zm-92.325 61.788c2.474-6.236 8.922-9.358 13.9-10.881l37.112-11.371 24.191-7.432 26.454 122.998h-56.11l-42.671-74.711c-3.902-6.836-4.923-13.443-2.876-18.603zm-28.899 49.671c1.204-.923 2.411-1.849 3.61-2.777l14.769-11.419 33.035 57.839h-72.842c-1.41-2.607-2.428-5.389-3.025-8.318-2.769-13.651 7.488-22.317 24.453-35.325zm425.709 80.674c-3.761 7.822-6.252 8.783-6.201 8.786h-69.462c-.018 0-105.262 0-105.262 0-5.522 0-10 4.477-10 10s4.478 10 10 10h90.962c-.131.427-.266.858-.396 1.283-4.788 15.661-7.273 20.537-13.494 20.537h-243.86c-6.228 0-8.714-4.867-13.498-20.497-.134-.438-.273-.882-.408-1.323h90.865c5.522 0 10-4.477 10-10s-4.478-10-10-10l-104.918.007c-.125-.001-.249-.004-.375 0l-69.25.005c-.024-.007-2.528-.946-6.313-8.833-2.422-5.048-4.528-11.146-6.419-16.996h363.49c.01 0 .021.002.031.002s.02-.002.03-.002h100.924c-1.9 5.861-4.015 11.978-6.446 17.031z"/><path d="m255.957 414.68c-5.522 0-10 4.477-10 10s4.478 10 10 10h.028c5.522 0 9.986-4.477 9.986-10s-4.492-10-10.014-10z"/></g></g></svg>