<svg id="Layer_3" enable-background="new 0 0 64 64" height="512" viewBox="0 0 64 64" width="512" xmlns="http://www.w3.org/2000/svg"><g><path d="m4 54v-3c0-15.464 12.536-28 28-28 15.464 0 28 12.536 28 28v3z" fill="#c1c8d1"/><path d="m14 36h36v14h-36z" fill="#ebf7fe"/><path d="m32 23c1.359 0 2.693.102 4 .289v-2.289c-.912-1.214-2.364-2-4-2-2.571 0-4.664 1.948-4.944 4.444 1.606-.286 3.256-.444 4.944-.444z" fill="#88929f"/><path d="m36 21-4-4 4-4v-7h7l4-4 4 4h7v7l4 4-4 4v7h-7l-4 4-4-4h-7z" fill="#78b75b"/><path d="m2 54h60v8h-60z" fill="#88929f" transform="matrix(-1 0 0 -1 64 116)"/><path d="m40 20-3-3 3-3v-4h4l3-3 3 3h4v4l3 3-3 3v4h-4l-3 3-3-3h-4z" fill="#96cc7f"/><g><path d="m62 53h-1v-2c0-8.403-3.563-16.245-9.828-21.758l.242-.242h6.586c.553 0 1-.447 1-1v-6.586l3.707-3.707c.391-.391.391-1.023 0-1.414l-3.707-3.707v-6.586c0-.553-.447-1-1-1h-6.586l-3.707-3.707c-.391-.391-1.023-.391-1.414 0l-3.707 3.707h-6.586c-.553 0-1 .447-1 1v6.586l-3.707 3.707c-.391.391-.391 1.023 0 1.414l.313.313c-2.645.173-4.824 2.064-5.431 4.568-13.208 2.704-23.175 14.416-23.175 28.412v2h-1c-.553 0-1 .447-1 1v8c0 .553.447 1 1 1h60c.553 0 1-.447 1-1v-8c0-.553-.447-1-1-1zm-25.293-39.293c.188-.187.293-.441.293-.707v-6h6c.266 0 .52-.105.707-.293l3.293-3.293 3.293 3.293c.187.188.441.293.707.293h6v6c0 .266.105.52.293.707l3.293 3.293-3.293 3.293c-.188.187-.293.441-.293.707v6h-6c-.266 0-.52.105-.707.293l-3.293 3.293-3.293-3.293c-.187-.188-.441-.293-.707-.293h-6v-6c0-.218-.086-.418-.215-.59l.014-.011c-.325-.433-.704-.807-1.116-1.13l-2.269-2.269zm-4.707 6.293c.893 0 1.727.302 2.413.827l.587.587v.758c-.996-.102-1.998-.172-3-.172-1.208 0-2.397.083-3.567.227.656-1.314 2.001-2.227 3.567-2.227zm-27 31c0-14.888 12.112-27 27-27 1.003 0 2.006.072 3 .182v3.818c0 .553.447 1 1 1h6.586l3.707 3.707c.195.195.451.293.707.293s.512-.098.707-.293l2.046-2.046c5.892 5.138 9.247 12.473 9.247 20.339v2h-54zm56 10h-58v-6h58z"/><path d="m36.293 17.707 2.707 2.707v3.586c0 .553.447 1 1 1h3.586l2.707 2.707c.195.195.451.293.707.293s.512-.098.707-.293l2.707-2.707h3.586c.553 0 1-.447 1-1v-3.586l2.707-2.707c.391-.391.391-1.023 0-1.414l-2.707-2.707v-3.586c0-.553-.447-1-1-1h-3.586l-2.707-2.707c-.391-.391-1.023-.391-1.414 0l-2.707 2.707h-3.586c-.553 0-1 .447-1 1v3.586l-2.707 2.707c-.391.391-.391 1.023 0 1.414zm4.414-3c.188-.187.293-.441.293-.707v-3h3c.266 0 .52-.105.707-.293l2.293-2.293 2.293 2.293c.187.188.441.293.707.293h3v3c0 .266.105.52.293.707l2.293 2.293-2.293 2.293c-.188.187-.293.441-.293.707v3h-3c-.266 0-.52.105-.707.293l-2.293 2.293-2.293-2.293c-.187-.188-.441-.293-.707-.293h-3v-3c0-.266-.105-.52-.293-.707l-2.293-2.293z"/><path d="m19 44h2v3h2v-8h-2v3h-2v-3h-2v8h2z"/><path d="m26 45h2v2h2v-5c0-1.654-1.346-3-3-3s-3 1.346-3 3v5h2zm1-4c.552 0 1 .448 1 1v1h-2v-1c0-.552.448-1 1-1z"/><path d="m38 45h2v2h2v-5c0-1.654-1.346-3-3-3s-3 1.346-3 3v5h2zm1-4c.552 0 1 .448 1 1v1h-2v-1c0-.552.448-1 1-1z"/><path d="m32 47h3v-2h-2v-6h-2v7c0 .553.447 1 1 1z"/><path d="m44 47h3v-2h-2v-6h-2v7c0 .553.447 1 1 1z"/><path d="m50 35h-36c-.553 0-1 .447-1 1v14c0 .553.447 1 1 1h36c.553 0 1-.447 1-1v-14c0-.553-.447-1-1-1zm-1 14h-34v-12h34z"/><path d="m17 15h2v5h-2z"/><path d="m9 23h5v2h-5z"/><path d="m12 16.172h2v5.657h-2z" transform="matrix(.707 -.707 .707 .707 -9.627 14.757)"/></g></g></svg>